<?xml version="1.0" standalone="no"?>
<!DOCTYPE svg PUBLIC "-//W3C//DTD SVG 20010904//EN"
 "http://www.w3.org/TR/2001/REC-SVG-20010904/DTD/svg10.dtd">
<svg version="1.0" xmlns="http://www.w3.org/2000/svg"
 width="512.000000pt" height="512.000000pt" viewBox="0 0 512.000000 512.000000"
 preserveAspectRatio="xMidYMid meet">
<metadata>
Created by potrace 1.14, written by Peter Selinger 2001-2017
</metadata>
<g transform="translate(0.000000,512.000000) scale(0.100000,-0.100000)"
fill="#000000" stroke="none">
<path d="M2320 4805 c-19 -7 -44 -14 -56 -14 -49 -2 -241 -99 -312 -157 -12
-11 -37 -30 -55 -44 -32 -25 -73 -65 -252 -249 -55 -57 -110 -107 -122 -112
-12 -4 -76 -9 -143 -10 -66 0 -123 -5 -126 -10 -3 -5 -10 -7 -15 -3 -5 3 -28
-4 -50 -15 -22 -12 -46 -21 -55 -21 -22 0 -65 -46 -59 -64 3 -9 8 -24 11 -33
24 -66 24 -174 0 -239 -16 -45 -19 -54 -25 -76 -2 -4 -11 -31 -21 -59 -11 -29
-22 -79 -26 -113 -4 -34 -10 -65 -14 -71 -6 -9 -21 -133 -35 -290 -2 -27 0
-95 6 -150 5 -55 12 -129 15 -165 3 -36 8 -72 11 -80 4 -8 7 -17 8 -20 1 -3 5
-41 9 -85 4 -44 11 -105 16 -135 5 -30 12 -82 15 -115 4 -33 10 -62 14 -65 4
-3 11 -32 15 -65 4 -33 11 -62 16 -63 6 -2 8 -8 4 -13 -3 -5 0 -9 5 -9 6 0 11
-6 11 -13 0 -7 8 -22 19 -33 32 -35 41 -61 52 -145 10 -81 6 -124 -12 -114 -5
4 -33 39 -63 79 -86 116 -215 196 -271 166 -14 -7 -22 -21 -22 -36 0 -28 29
-47 107 -70 80 -24 141 -88 200 -210 28 -58 60 -128 71 -156 29 -73 89 -262
89 -280 0 -23 -44 -58 -73 -58 -33 0 -96 38 -126 76 -14 18 -21 22 -21 11 0
-8 23 -36 52 -62 47 -42 56 -46 93 -42 22 2 55 10 73 18 42 18 59 7 92 -57 13
-27 30 -55 37 -62 7 -7 13 -19 13 -26 0 -7 8 -21 18 -32 9 -10 29 -44 45 -74
110 -221 247 -388 370 -451 20 -11 37 -23 37 -28 0 -11 90 -47 108 -43 6 2 12
-5 12 -14 0 -10 5 -14 15 -10 8 3 15 1 15 -4 0 -5 18 -13 40 -16 22 -4 40 -10
40 -14 0 -8 55 -24 78 -23 6 0 12 -3 12 -8 0 -5 11 -9 25 -9 13 0 44 -6 67
-14 24 -7 88 -21 143 -31 55 -9 121 -21 147 -26 89 -16 232 -22 288 -11 30 6
82 14 115 17 79 8 88 9 100 16 6 4 27 10 49 13 21 4 46 11 55 16 36 19 121 50
135 50 9 0 16 4 16 8 0 5 12 14 28 21 47 21 162 93 162 101 0 5 8 11 19 15 30
9 219 203 263 269 22 34 51 86 65 116 13 30 28 62 33 71 4 9 12 38 15 65 4 27
11 54 15 59 12 15 32 206 37 350 3 98 8 133 19 141 15 12 9 48 -7 38 -5 -3 -9
23 -9 58 l0 63 62 30 c51 24 67 38 84 73 12 23 18 42 12 42 -7 0 -6 5 1 14 9
10 11 67 7 199 -4 173 -3 187 15 203 15 13 18 27 15 58 -6 68 -9 71 -85 73
-37 1 -79 7 -93 12 -29 11 -25 -21 -44 416 -3 77 -9 145 -14 150 -4 6 -11 57
-15 115 -4 58 -11 110 -15 115 -4 6 -10 36 -13 69 -3 32 -10 63 -16 69 -7 7
-11 67 -11 164 0 159 -18 287 -46 327 -17 25 -18 48 -2 64 7 7 13 20 13 29 0
34 -127 164 -255 261 -22 17 -177 98 -190 100 -16 2 -67 16 -75 21 -5 3 -21 7
-35 9 -13 2 -27 7 -30 12 -3 4 -45 11 -95 15 -49 4 -108 11 -130 15 -22 5
-116 12 -210 15 -93 4 -171 8 -173 10 -1 1 5 39 14 84 14 70 15 85 3 95 -36
34 -279 48 -349 21z m430 -1284 c248 -56 469 -143 588 -231 45 -34 63 -19 61
50 -2 45 2 64 19 88 12 16 22 37 22 45 0 21 29 30 36 12 4 -8 11 -15 17 -15 5
0 32 -22 58 -50 71 -74 113 -63 112 30 0 37 3 47 14 46 31 -5 100 -110 109
-165 4 -22 10 -38 15 -36 10 7 22 -32 14 -45 -3 -5 -1 -10 6 -10 7 0 9 -10 6
-27 -8 -39 15 -441 30 -535 5 -33 3 -38 -14 -38 -10 0 -24 -5 -29 -10 -6 -6
-64 -11 -135 -11 -129 0 -184 9 -389 66 -128 36 -160 41 -160 24 1 -59 52 -98
158 -119 34 -7 60 -15 57 -18 -3 -3 -33 -5 -68 -3 -61 1 -107 -13 -114 -36 -2
-6 4 -13 14 -16 17 -4 17 -4 0 -12 -27 -11 -68 -55 -62 -65 3 -5 -2 -15 -11
-24 -8 -9 -13 -20 -10 -25 10 -15 -17 -28 -69 -34 -156 -18 -332 -37 -346 -37
-9 0 -22 14 -29 30 -35 85 -159 112 -405 90 -71 -6 -155 -14 -185 -16 -48 -4
-114 -12 -275 -31 -22 -3 -60 -11 -84 -19 -24 -8 -46 -12 -49 -9 -3 2 -10 1
-17 -5 -11 -9 -115 -38 -164 -45 -33 -5 -40 -21 -36 -85 3 -51 5 -56 33 -64
28 -8 31 -12 37 -70 6 -62 19 -129 37 -200 5 -22 11 -51 13 -65 9 -66 69 -165
105 -170 8 -2 101 -4 205 -5 312 -5 675 52 747 116 14 13 35 30 47 38 11 8 21
20 21 26 0 7 5 14 11 16 15 5 26 302 12 320 -5 7 -11 31 -12 53 l-2 41 128 13
c70 7 155 17 188 21 33 4 66 5 73 2 7 -2 12 -23 12 -53 0 -38 -4 -51 -20 -59
-34 -18 -23 -65 30 -122 8 -9 24 -43 35 -75 21 -67 36 -87 86 -119 62 -39 143
-49 282 -34 117 11 390 54 432 67 16 5 18 3 9 -8 -6 -8 -15 -39 -18 -70 l-7
-56 -105 5 c-122 5 -321 -19 -309 -38 3 -5 -5 -10 -17 -12 -13 -2 67 -7 177
-10 110 -4 208 -10 218 -13 9 -4 17 -14 17 -23 0 -17 -47 -215 -57 -242 -3 -8
-7 -28 -9 -45 -2 -16 -7 -41 -10 -55 -11 -38 -12 -43 -18 -75 -11 -58 -14 -70
-24 -96 -6 -15 -8 -30 -5 -33 4 -3 1 -6 -5 -6 -7 0 -12 -9 -12 -19 0 -11 -4
-23 -10 -26 -5 -3 -10 -13 -10 -22 0 -34 -84 -137 -236 -290 -99 -99 -122
-116 -205 -157 -174 -84 -372 -121 -593 -113 -119 4 -141 8 -236 41 -58 21
-109 41 -115 46 -5 4 -21 11 -35 15 -52 15 -198 89 -265 133 -66 44 -206 172
-188 172 4 0 0 5 -9 11 -10 5 -18 16 -18 24 0 8 -9 20 -20 28 -11 8 -17 16
-14 20 3 3 -6 13 -20 22 -14 10 -26 24 -26 31 0 8 -4 14 -10 14 -5 0 -10 7
-10 15 0 8 -5 15 -11 15 -6 0 -9 7 -5 15 3 8 1 15 -4 15 -6 0 -9 4 -8 9 2 5
-6 17 -17 26 -11 9 -13 14 -5 10 10 -4 9 -2 -2 8 -10 8 -15 17 -11 20 3 4 1 7
-5 7 -7 0 -12 9 -12 21 0 13 -4 18 -12 13 -8 -5 -9 -2 -5 9 3 10 3 17 -2 17
-6 0 -80 146 -86 170 -5 20 -58 190 -66 210 -5 14 -11 41 -14 60 -3 19 -7 46
-10 60 -3 14 -8 45 -11 70 -3 25 -7 68 -11 95 -3 28 -7 79 -8 115 -2 36 -4 66
-5 68 -6 6 -8 27 -10 105 -1 58 -4 75 -10 57 -7 -22 -8 -22 -10 -5 -2 11 -4
31 -6 45 -2 14 -4 46 -5 73 -1 26 -5 47 -9 47 -4 0 -7 6 -7 13 -1 18 -11 82
-14 85 -1 1 -2 5 -3 10 -1 4 -7 16 -13 27 -13 25 -28 95 -15 77 5 -7 13 61 21
175 21 326 59 445 184 566 55 54 97 75 227 114 83 26 94 26 462 32 207 3 380
10 385 14 4 5 17 6 28 4 11 -3 63 -14 115 -26z m1167 -955 c3 -3 -8 -6 -25 -6
-17 0 -34 -5 -38 -12 -11 -17 -11 -58 -1 -58 5 0 7 -9 4 -20 -3 -11 -1 -20 4
-20 5 0 9 -12 8 -27 -1 -16 2 -41 6 -58 8 -29 7 -29 -11 -13 -39 34 -118 59
-219 68 -135 12 -174 12 -155 0 11 -7 1 -10 -35 -9 -37 0 -45 3 -30 9 14 6 1
9 -45 10 -66 2 -72 2 -130 15 -23 5 -30 4 -26 -4 4 -6 1 -11 -8 -11 -19 0 -36
-31 -40 -73 -5 -51 -17 -87 -27 -81 -11 7 -12 84 -1 84 5 0 13 17 18 37 10 40
70 85 84 63 5 -8 9 -6 14 5 4 11 13 15 26 12 11 -3 20 -2 20 1 0 18 73 26 165
21 140 -9 280 -10 288 -2 4 3 -1 12 -11 19 -15 12 -14 13 16 14 19 0 32 5 32
13 0 25 24 37 67 33 24 -2 47 -6 50 -10z m112 0 c8 -10 2 -31 -24 -82 -19 -37
-35 -75 -35 -83 0 -11 -3 -12 -11 -4 -17 17 -15 114 3 148 17 33 49 42 67 21z
m-411 -33 c-15 -2 -42 -2 -60 0 -18 2 -6 4 27 4 33 0 48 -2 33 -4z m479 -115
c14 -67 9 -338 -6 -376 -9 -22 -25 -32 -69 -47 -31 -11 -64 -22 -72 -27 -16
-7 -111 -28 -250 -52 -47 -8 -138 -20 -203 -25 -210 -18 -275 12 -311 141 -29
102 -31 159 -7 188 l21 25 0 -34 c0 -18 9 -48 19 -65 l20 -31 131 7 c148 8
164 15 197 89 l16 38 19 -21 c10 -12 18 -30 18 -42 1 -20 2 -19 15 4 11 18 13
43 9 92 l-7 67 55 -28 c31 -15 69 -38 86 -49 39 -28 50 -28 64 3 6 14 16 23
22 20 6 -3 19 -8 29 -11 9 -4 17 -13 17 -20 0 -8 4 -14 9 -14 5 0 14 -13 21
-30 7 -16 16 -28 20 -25 4 2 10 33 13 69 3 35 13 81 21 101 18 42 66 103 81
104 6 1 15 -23 22 -51z m-1589 -38 c12 0 22 -5 22 -11 0 -6 9 -8 20 -4 12 4
20 2 20 -5 0 -6 5 -8 10 -5 6 3 10 -1 10 -9 0 -9 4 -16 9 -16 19 0 48 -124 31
-135 -5 -3 -11 8 -15 24 -8 39 -41 51 -143 51 -48 0 -105 6 -127 12 -89 25
-311 5 -360 -32 -5 -4 -43 -18 -83 -30 -98 -31 -173 -77 -194 -119 -9 -19 -23
-38 -30 -42 -9 -6 -9 -9 -1 -9 6 0 19 10 27 22 9 12 19 19 23 15 3 -4 2 -12
-4 -18 -10 -10 4 -59 17 -59 3 0 34 20 70 45 l65 44 24 -70 c26 -72 51 -92 51
-39 0 17 4 30 10 30 5 0 25 -13 43 -30 33 -28 40 -30 119 -30 82 0 85 1 115
33 17 17 38 47 48 65 16 33 17 33 36 16 15 -14 18 -25 13 -48 -5 -25 -4 -29 7
-19 16 16 26 168 10 177 -6 4 -11 14 -11 22 0 12 8 11 41 -8 43 -24 109 -93
109 -114 0 -6 7 -25 15 -40 15 -28 15 -28 10 26 -4 30 -11 67 -15 83 -8 25 -7
27 20 27 42 0 109 -31 116 -54 4 -11 7 -65 7 -120 1 -112 -10 -145 -62 -189
-16 -13 -27 -27 -24 -30 3 -3 -4 -3 -16 0 -13 3 -21 1 -21 -6 0 -7 -4 -10 -9
-7 -5 3 -29 0 -54 -8 -25 -8 -48 -11 -51 -8 -4 3 -6 0 -6 -7 0 -6 -6 -11 -12
-10 -7 2 -42 -1 -78 -6 -181 -23 -290 -30 -440 -28 -80 0 -156 3 -169 5 -33 6
-71 53 -71 88 0 16 -4 31 -9 34 -4 3 -11 26 -14 51 -6 38 -3 50 13 67 11 12
20 28 20 35 0 7 5 13 10 13 6 0 10 9 10 20 0 28 -14 25 -44 -11 -17 -20 -27
-26 -30 -17 -11 36 -15 150 -6 202 11 68 37 102 84 111 17 3 40 10 51 15 29
13 261 44 415 55 41 3 76 8 78 10 3 2 66 2 141 -1 75 -2 146 -4 159 -4z m862
-47 c-1 -32 -26 -55 -57 -51 -37 4 -44 40 -11 56 36 17 68 15 68 -5z m-1300
-156 c0 -32 -18 -47 -57 -47 -46 0 -46 35 0 55 45 20 57 18 57 -8z m1240 -43
c0 -2 -9 -4 -21 -4 -11 0 -18 4 -14 10 5 8 35 3 35 -6z"/>
<path d="M1955 2843 c-142 -19 -375 -151 -375 -212 0 -30 47 -28 91 5 46 34
162 93 218 110 80 24 225 28 336 9 139 -24 185 -24 199 -2 19 31 -21 52 -143
75 -102 21 -239 27 -326 15z"/>
<path d="M3186 1816 c8 -20 54 -49 62 -40 4 4 1 9 -7 12 -7 2 -22 13 -32 23
-23 23 -30 24 -23 5z"/>
<path d="M2628 1739 c-10 -5 -18 -19 -18 -31 0 -16 3 -18 14 -9 11 9 30 52 23
51 -1 0 -10 -5 -19 -11z"/>
<path d="M3392 1735 c-11 -13 -10 -15 7 -15 14 0 19 5 15 15 -7 18 -6 18 -22
0z"/>
<path d="M3130 1687 c0 -5 7 -30 16 -58 11 -33 14 -63 10 -93 -6 -37 -14 -50
-52 -79 -54 -42 -126 -62 -199 -54 -72 7 -111 30 -143 83 -30 49 -49 56 -58
20 -12 -49 30 -137 76 -161 64 -33 257 -25 309 13 71 52 114 169 92 249 -10
37 -50 100 -51 80z"/>
<path d="M1645 1598 c10 -72 27 -102 71 -123 33 -15 46 -16 108 -6 39 6 94 15
123 19 49 8 84 22 52 22 -8 0 -32 9 -54 20 -60 31 -105 22 -69 -14 8 -9 11
-16 6 -16 -5 0 -15 7 -22 15 -9 11 -28 15 -59 14 -70 -3 -108 25 -125 94 -3
15 -13 27 -22 27 -13 0 -15 -8 -9 -52z"/>
<path d="M2013 1563 c-57 -4 -70 -19 -25 -29 15 -4 30 -12 33 -17 11 -16 39 0
33 18 -5 12 2 15 35 15 23 0 41 5 41 10 0 10 -11 10 -117 3z"/>
<path d="M3257 1229 c-141 -33 -582 -78 -772 -79 -75 0 -116 -13 -80 -25 41
-14 125 -56 125 -63 0 -5 17 -14 38 -21 20 -7 53 -20 72 -29 24 -12 70 -18
150 -20 96 -3 127 0 190 18 136 40 141 43 263 157 23 21 50 42 60 46 10 4 15
11 12 17 -7 11 -6 11 -58 -1z"/>
<path d="M781 2094 c0 -11 3 -14 6 -6 3 7 2 16 -1 19 -3 4 -6 -2 -5 -13z"/>
<path d="M4041 1864 c0 -11 3 -14 6 -6 3 7 2 16 -1 19 -3 4 -6 -2 -5 -13z"/>
</g>
</svg>
